
<svg version="1.0" xmlns="http://www.w3.org/2000/svg"
height="42" width="118" viewBox="0 0 398.000000 108.000000"
 preserveAspectRatio="xMidYMid meet">

<g transform="translate(0.000000,108.000000) scale(0.100000,-0.100000)"
fill="#000000" stroke="none">
<path d="M170 935 l144 -145 236 -2 235 -3 3 -235 2 -236 145 -144 145 -145 0
528 0 527 -527 0 -528 0 145 -145z"/>
<path d="M0 527 l0 -527 527 0 528 0 -145 145 -144 145 -236 2 -235 3 -3 235
-2 236 -145 144 -145 145 0 -528z"/>
<path d="M1605 869 c-193 -24 -251 -230 -92 -328 18 -11 70 -33 116 -50 47
-17 95 -41 108 -53 31 -29 31 -82 1 -102 -79 -50 -198 -13 -198 61 0 22 -4 23
-70 23 -66 0 -70 -1 -70 -23 0 -40 43 -110 85 -139 55 -36 106 -50 191 -50
110 1 171 32 205 107 56 122 -11 220 -191 280 -106 35 -132 56 -128 104 2 28
9 39 32 50 68 32 151 7 163 -49 5 -30 6 -30 74 -30 65 0 69 1 69 23 0 12 -10
43 -22 67 -42 82 -150 125 -273 109z"/>
<path d="M1940 857 c0 -7 49 -155 109 -328 l109 -314 70 -3 69 -3 21 58 c64
173 202 577 202 590 0 11 -15 13 -71 11 l-72 -3 -71 -237 c-39 -131 -73 -234
-77 -230 -3 4 -34 104 -69 222 -35 118 -67 223 -72 233 -7 14 -22 17 -78 17
-51 0 -70 -4 -70 -13z"/>
<path d="M2580 637 c0 -314 13 -354 133 -407 63 -28 179 -29 239 -2 53 23 103
79 117 129 6 22 11 141 11 276 l0 237 -64 0 -64 0 -4 -242 c-3 -260 -6 -275
-55 -297 -43 -20 -109 -13 -140 13 l-28 24 -5 249 -5 248 -67 3 -68 3 0 -234z"/>
<path d="M3190 540 l0 -331 68 3 67 3 5 204 5 204 114 -189 c63 -104 121 -197
129 -206 11 -14 30 -18 79 -18 l63 0 0 330 0 330 -65 0 -65 0 0 -217 0 -217
-121 200 c-67 109 -129 207 -137 217 -11 13 -31 17 -79 17 l-63 0 0 -330z"/>
<path d="M3845 857 c-3 -7 -4 -154 -3 -327 l3 -315 68 -3 67 -3 0 331 0 330
-65 0 c-44 0 -67 -4 -70 -13z"/>
</g>
</svg>
